<svg xmlns="http://www.w3.org/2000/svg" version="1.1" xmlns:xlink="http://www.w3.org/1999/xlink" width="200" height="200"><svg xmlns="http://www.w3.org/2000/svg" version="1.1" xmlns:xlink="http://www.w3.org/1999/xlink" viewBox="0 0 200 200"><rect width="200" height="200" fill="url('#gradient')"></rect><defs><linearGradient id="SvgjsLinearGradient1006" gradientTransform="rotate(45 0.5 0.5)"><stop offset="0%" stop-color="#000000"></stop><stop offset="100%" stop-color="#000000"></stop></linearGradient></defs><g><g fill="#ffffff" transform="matrix(6.894432455761761,0,0,6.894432455761761,14.60975526574876,148.33168880333403)" stroke="#832018" stroke-width="0"><path d="M12.96-14.22L12.96 0L9.55 0L9.55-5.94L4.50-5.94L4.50 0L1.07 0L1.07-14.22L4.50-14.22L4.50-8.57L9.55-8.57L9.55-14.22L12.96-14.22ZM20.51-2.97L20.51-2.97Q20.51-3.39 20.07-3.64Q19.63-3.90 18.40-4.17Q17.17-4.44 16.37-4.89Q15.57-5.33 15.15-5.97Q14.73-6.60 14.73-7.42L14.73-7.42Q14.73-8.88 15.93-9.82Q17.13-10.76 19.07-10.76L19.07-10.76Q21.16-10.76 22.43-9.81Q23.70-8.87 23.70-7.32L23.70-7.32L20.40-7.32Q20.40-8.59 19.06-8.59L19.06-8.59Q18.54-8.59 18.19-8.31Q17.84-8.02 17.84-7.59L17.84-7.59Q17.84-7.15 18.27-6.88Q18.70-6.60 19.64-6.43Q20.59-6.25 21.30-6.01L21.30-6.01Q23.68-5.19 23.68-3.07L23.68-3.07Q23.68-1.62 22.40-0.71Q21.11 0.20 19.07 0.20L19.07 0.20Q17.71 0.20 16.65-0.29Q15.59-0.78 14.99-1.62Q14.39-2.46 14.39-3.39L14.39-3.39L17.47-3.39Q17.49-2.66 17.96-2.32Q18.43-1.98 19.16-1.98L19.16-1.98Q19.83-1.98 20.17-2.26Q20.51-2.53 20.51-2.97Z"></path></g></g></svg><style>@media (prefers-color-scheme: light) { :root { filter: none; } }
@media (prefers-color-scheme: dark) { :root { filter: none; } }
</style></svg>